<svg xmlns="http://www.w3.org/2000/svg" width="19" height="19" fill="none">
	<path fill="#000"
		d="m16.838 18.38-6.3-6.3a6.096 6.096 0 0 1-3.8 1.3c-1.816 0-3.354-.63-4.612-1.887C.868 10.234.238 8.697.238 6.88c0-1.817.63-3.354 1.888-4.613C3.384 1.009 4.922.38 6.738.38c1.817 0 3.355.629 4.613 1.887 1.258 1.259 1.887 2.796 1.887 4.613a6.096 6.096 0 0 1-1.3 3.8l6.3 6.3-1.4 1.4Zm-10.1-7c1.25 0 2.313-.438 3.188-1.312.875-.875 1.312-1.938 1.312-3.188 0-1.25-.437-2.313-1.312-3.188S7.988 2.38 6.738 2.38c-1.25 0-2.312.437-3.188 1.312-.874.875-1.312 1.938-1.312 3.188 0 1.25.438 2.313 1.312 3.188.876.875 1.938 1.312 3.188 1.312Z" />
</svg>