<svg width="23" height="18" viewBox="0 0 23 18" fill="none" xmlns="http://www.w3.org/2000/svg">
<path d="M11.6753 0.365234C6.67529 0.365234 2.40529 3.85725 0.675293 8.7865C2.40529 13.7157 6.67529 17.2078 11.6753 17.2078C16.6753 17.2078 20.9453 13.7157 22.6753 8.7865C20.9453 3.85725 16.6753 0.365234 11.6753 0.365234ZM11.6753 14.4007C8.91529 14.4007 6.67529 11.8855 6.67529 8.7865C6.67529 5.68748 8.91529 3.17232 11.6753 3.17232C14.4353 3.17232 16.6753 5.68748 16.6753 8.7865C16.6753 11.8855 14.4353 14.4007 11.6753 14.4007ZM11.6753 5.41799C10.0153 5.41799 8.67529 6.92259 8.67529 8.7865C8.67529 10.6504 10.0153 12.155 11.6753 12.155C13.3353 12.155 14.6753 10.6504 14.6753 8.7865C14.6753 6.92259 13.3353 5.41799 11.6753 5.41799Z" fill="white"/>
</svg>
